# xmcd
#
# Track frame offsets:
#	150
#	26537
#	44320
#	67717
#	91927
#	113310
#	139290
#	158332
#	170670
#	198070
#	218070
#	241132
#
# Disc length: 3474 seconds
#
# Revision: 1
# Processed by: cddbd v1.4PL0 Copyright (c) Steve Scherf et al.
# Submitted via: audiograbber 1.81.02
#
DISCID=8a0d900c
DTITLE=Mudpuppy - One Night Only
DYEAR=1999
DGENRE=R&B
TTITLE0=Call The Plumber
TTITLE1=Baby What You Want Me To Do
TTITLE2=Played You Close
TTITLE3=Voodoo
TTITLE4=Thank You
TTITLE5=White Bread and Hot Sauce
TTITLE6=You Got The Love
TTITLE7=Why Don't Cha
TTITLE8=Kansas City
TTITLE9=Smiling Faces Sometimes
TTITLE10=Funky Stuff
TTITLE11=I Like My Baby's Pudding
EXTD=Featuring Paul Randolph\nPublished by Venture Records,\n23814 Michigan Ave
EXTD=nue, Suite 244\nDearborn, Michigan  48124
EXTT0=
EXTT1=
EXTT2=
EXTT3=
EXTT4=
EXTT5=
EXTT6=
EXTT7=
EXTT8=
EXTT9=
EXTT10=
EXTT11=
PLAYORDER=
